<svg width="384" height="76" viewBox="0 0 384 76" fill="none" xmlns="http://www.w3.org/2000/svg">
<g clip-path="url(#clip0_671_4752)">
<path d="M274.261 75.519C270.671 75.569 267.352 74.489 264.152 73.019C259.102 70.689 254.542 67.599 250.302 64.009C246.762 61.009 243.612 57.679 241.222 53.689C240.252 52.069 239.562 50.249 239.932 48.329C240.532 45.219 243.282 44.029 246.302 45.909C249.602 47.959 252.771 50.199 256.071 52.239C258.441 53.709 260.921 55.009 263.381 56.329C263.671 56.489 264.291 56.479 264.481 56.279C264.801 55.959 265.102 55.389 265.032 54.979C264.872 53.959 264.231 53.269 263.291 52.709C258.121 49.649 252.932 46.599 247.862 43.389C244.702 41.389 241.891 38.919 239.911 35.649C238.401 33.149 237.841 30.459 239.011 27.739C240.041 25.349 242.012 24.239 245.022 25.719C249.092 27.719 252.981 30.069 256.921 32.309C258.601 33.269 260.222 34.339 261.902 35.319C262.162 35.469 262.741 35.529 262.851 35.379C263.111 35.049 263.391 34.479 263.261 34.169C263.011 33.529 262.612 32.809 262.062 32.459C259.592 30.859 257.022 29.409 254.522 27.849C251.662 26.059 248.662 24.419 246.062 22.309C243.492 20.219 242.211 17.219 242.791 13.819C243.221 11.239 245.491 10.009 247.951 10.779C250.811 11.669 253.601 12.949 256.201 14.439C259.571 16.359 262.721 18.639 265.981 20.749C266.401 21.019 266.862 21.279 267.342 21.369C267.822 21.469 268.561 21.549 268.791 21.279C269.151 20.869 269.312 20.169 269.302 19.589C269.292 18.789 269.022 17.989 268.902 17.179C268.432 14.249 271.482 13.139 273.832 14.159C276.062 15.119 277.521 16.929 278.951 18.729C282.541 23.259 284.632 28.579 286.592 33.919C287.812 37.239 288.821 40.699 289.441 44.179C290.171 48.249 289.982 52.389 289.552 56.529C289.232 59.639 288.721 62.669 287.631 65.619C285.641 71.009 282.082 74.549 276.272 75.509C275.632 75.609 274.941 75.519 274.261 75.519Z" fill="#DF2728"/>
<path d="M45.5419 60.7791C42.4219 62.7291 39.3419 64.8291 36.1019 66.6291C32.3819 68.6991 28.5819 70.6491 24.6919 72.3691C22.0219 73.5491 19.2019 74.4991 16.3419 75.0991C11.5119 76.1191 6.78188 75.7791 2.89188 72.2491C0.931883 70.4691 0.151888 68.0591 0.0218878 65.4391C-0.198112 61.0291 1.27189 56.9891 3.01189 53.0791C5.70189 47.0391 8.59188 41.0791 11.3919 35.0791C12.1619 33.4391 12.8919 31.7791 13.6019 30.2191C11.5919 29.9891 9.60188 29.8391 7.64188 29.5191C5.23188 29.1291 3.41189 26.4491 4.09189 23.4191C4.77189 20.3891 6.86189 18.6491 9.87189 18.5191C12.6119 18.3991 15.3519 18.3091 18.0919 18.2991C18.9719 18.2991 19.3819 18.0291 19.7519 17.2191C21.5319 13.3091 23.3219 9.3991 25.2519 5.5591C26.1119 3.8491 26.9819 2.0191 28.7519 0.989098C31.9519 -0.860902 36.9219 0.0790982 38.0419 4.1691C38.4919 5.8091 38.1819 7.4991 37.4719 9.0891C36.1119 12.1191 34.7919 15.1691 33.4219 18.2691C35.8619 18.2691 38.2219 18.1791 40.5619 18.2991C42.3719 18.3891 44.1819 18.6791 45.7719 19.7391C47.7919 21.0791 47.7019 25.1991 46.4719 27.0991C45.4319 28.6991 43.8519 29.6391 42.0219 29.7291C37.6519 29.9391 33.2719 29.9591 28.8919 29.9891C28.0319 29.9991 27.6619 30.2691 27.3519 31.0491C26.6919 32.6991 25.9119 34.2991 25.1519 35.9091C22.8619 40.7391 20.5019 45.5391 18.2819 50.3991C16.9819 53.2391 15.8519 56.1491 14.7619 59.0791C14.2319 60.4991 14.7819 61.8991 15.8019 62.0491C16.6019 62.1691 17.5519 62.2491 18.2619 61.9391C20.8919 60.8191 23.5519 59.7191 26.0019 58.2691C31.9019 54.7791 37.6519 51.0291 43.5519 47.5191C45.1019 46.5991 45.0219 45.2091 45.3719 43.8591C46.1619 40.7491 46.7719 37.5791 47.8319 34.5691C49.0319 31.1491 50.5619 27.8391 52.1019 24.5591C53.7619 21.0191 56.0719 17.9091 59.0219 15.2991C60.0619 14.3791 61.2819 13.7391 62.6919 13.7291C64.9619 13.7191 66.2319 15.5791 65.7219 17.9291C65.5319 18.8091 65.5019 19.7491 65.5419 20.6591C65.5819 21.4991 66.1719 21.8991 66.9419 21.4891C68.5119 20.6591 70.1119 19.8491 71.5319 18.8091C75.3719 15.9991 79.4919 13.6791 83.8019 11.6891C85.0419 11.1191 86.4519 10.7591 87.8219 10.6391C91.0019 10.3591 92.4619 13.5391 92.0619 16.0591C91.3419 20.5891 88.1819 23.1391 84.5319 25.2891C80.6319 27.5891 76.7119 29.8791 72.8419 32.2291C72.0819 32.6891 71.4419 33.3791 71.5119 34.4491C71.5719 35.4491 72.0619 35.7891 72.9419 35.2691C74.9119 34.1091 76.8319 32.8591 78.8119 31.7191C82.3719 29.6791 85.9119 27.5691 89.5719 25.7191C93.3119 23.8291 95.8419 26.2791 96.2119 29.7891C96.5619 33.1491 95.0719 35.8391 92.9019 38.2391C89.1719 42.3491 84.4819 45.1991 79.7819 47.9991C77.0219 49.6491 74.1819 51.1791 71.3819 52.7491C69.9419 53.5591 69.3219 54.8191 69.8319 55.8491C70.1819 56.5391 70.5919 56.7791 71.3319 56.3591C74.7819 54.3591 78.2819 52.4291 81.7019 50.3691C84.2919 48.8091 86.6819 46.8991 89.3419 45.4791C91.8319 44.1491 94.6719 45.6691 94.8219 48.7791C94.9719 51.9191 93.3019 54.2791 91.5719 56.5691C87.0719 62.5191 81.2919 67.0091 74.8819 70.7391C71.8619 72.4991 68.7619 74.0691 65.3319 74.9091C61.1019 75.9391 56.9319 75.9791 53.0919 73.5991C50.3119 71.8791 48.4319 69.3391 47.3119 66.2691C46.6319 64.4691 46.1219 62.6091 45.5419 60.7791Z" fill="#2F3386"/>
<path d="M336.712 63.499C334.232 64.989 331.882 66.449 329.482 67.839C323.862 71.109 318.002 73.899 311.602 75.209C307.832 75.979 303.982 75.809 300.472 73.809C297.362 72.039 295.752 69.309 295.532 65.769C295.252 61.339 296.602 57.259 298.402 53.309C301.022 47.559 303.702 41.839 306.352 36.099C307.282 34.089 308.202 32.079 309.072 30.199C307.112 29.969 305.202 29.759 303.292 29.529C300.192 29.159 298.562 25.419 299.772 22.489C300.822 19.959 302.602 18.539 305.402 18.479C308.222 18.419 311.042 18.309 313.862 18.259C314.482 18.249 314.732 18.069 315.042 17.439C317.512 12.439 320.102 7.49903 322.602 2.51903C323.482 0.769031 326.962 -0.190967 328.712 0.169033C331.212 0.679033 332.952 1.89903 333.562 4.40903C333.992 6.19903 333.442 7.90903 332.722 9.53903C331.472 12.389 330.202 15.229 328.862 18.259C330.362 18.259 331.812 18.169 333.252 18.279C335.402 18.439 337.572 18.559 339.672 19.019C341.772 19.469 342.622 21.049 342.812 23.139C343.212 27.589 339.712 29.919 335.762 29.989C331.962 30.059 328.172 30.029 324.372 29.979C323.572 29.969 323.182 30.239 322.852 30.949C319.652 37.809 316.392 44.639 313.212 51.509C312.232 53.619 311.392 55.809 310.572 57.989C310.302 58.699 310.212 59.509 310.182 60.279C310.122 61.619 310.642 62.069 312.022 62.099C314.322 62.159 316.282 61.139 318.202 60.099C321.322 58.409 324.412 56.649 327.422 54.759C330.362 52.909 333.182 50.879 336.042 48.899C336.272 48.739 336.482 48.429 336.522 48.159C337.642 41.189 340.562 34.979 344.772 29.409C348.652 24.279 353.452 20.189 359.722 18.259C362.012 17.549 364.482 17.139 366.872 17.119C371.162 17.099 375.182 18.329 378.362 21.369C380.872 23.779 382.412 26.819 383.052 30.239C383.442 32.309 383.802 34.449 383.752 36.539C383.602 42.069 382.772 47.509 380.612 52.669C378.842 56.899 376.692 60.899 373.692 64.419C370.672 67.959 367.302 71.039 363.092 73.119C359.382 74.959 355.462 75.869 351.342 75.469C344.692 74.809 339.982 71.409 337.482 65.129C337.282 64.619 337.002 64.109 336.712 63.499ZM349.582 55.709C349.792 56.649 350.002 57.599 350.232 58.539C350.792 60.829 352.992 62.609 355.322 62.579C358.032 62.539 359.882 60.849 361.392 58.929C365.012 54.309 367.572 49.109 369.052 43.429C369.912 40.139 370.482 36.799 369.682 33.369C369.132 30.999 366.182 28.969 363.782 29.679C360.952 30.519 359.072 32.359 357.422 34.609C355.012 37.879 353.332 41.529 351.962 45.299C350.742 48.629 349.812 52.069 349.582 55.709Z" fill="#8DBF43"/>
<path d="M139.011 63.5591C137.291 64.6191 135.361 65.8991 133.361 67.0491C127.631 70.3391 121.801 73.4191 115.321 74.9591C111.701 75.8191 108.031 75.9391 104.501 74.5491C101.161 73.2391 98.5315 70.2491 98.1015 66.3391C97.6315 62.0991 98.9915 58.2991 100.421 54.4891C101.191 52.4391 102.131 50.4491 103.061 48.4591C105.651 42.9091 108.271 37.3791 110.871 31.8391C111.131 31.2791 111.331 30.6991 111.561 30.1291C109.911 30.0091 108.331 29.9191 106.761 29.7591C102.131 29.2891 100.821 24.8691 102.791 21.4391C103.871 19.5591 105.581 18.5991 107.741 18.5091C110.401 18.4091 113.071 18.2491 115.731 18.3091C116.941 18.3391 117.451 17.8991 117.911 16.8891C119.591 13.1691 121.281 9.44907 123.121 5.81907C123.911 4.25907 124.921 2.72908 126.161 1.50908C127.911 -0.200924 130.221 -0.320926 132.451 0.469075C134.771 1.28907 136.261 3.04908 136.201 5.51908C136.161 7.14908 135.541 8.80908 134.921 10.3491C133.911 12.8991 132.691 15.3591 131.561 17.8591C131.531 17.9291 131.541 18.0091 131.511 18.2591C132.821 18.2591 134.121 18.1991 135.401 18.2691C137.371 18.3691 139.341 18.4991 141.301 18.7291C145.491 19.2291 146.071 23.4791 144.871 26.2291C143.921 28.4091 142.141 29.6291 139.811 29.7291C135.471 29.9091 131.131 29.9391 126.791 29.9791C126.051 29.9891 125.691 30.2091 125.381 30.8791C123.651 34.6591 121.821 38.3991 120.111 42.1891C117.691 47.5491 115.351 52.9291 112.991 58.3091C112.791 58.7691 112.641 59.2691 112.551 59.7591C112.301 61.0691 113.181 62.2091 114.501 62.0591C115.881 61.8991 117.321 61.6591 118.571 61.0891C125.631 57.8491 132.041 53.5191 138.331 49.0191C138.981 48.5591 139.081 47.2991 139.381 46.3991C140.241 43.8091 140.961 41.1591 141.951 38.6191C143.341 35.0591 145.401 31.8491 147.781 28.8591C152.481 22.9491 158.241 18.6091 165.861 17.3491C170.401 16.5991 174.871 17.2091 178.791 19.7491C182.371 22.0691 184.491 25.5391 185.461 29.6991C186.311 33.3591 186.282 37.0391 185.972 40.7691C185.492 46.5691 183.741 51.9691 181.111 57.0991C178.921 61.3791 176.101 65.2291 172.491 68.4291C168.801 71.6991 164.651 74.2791 159.731 75.1491C153.111 76.3191 147.071 75.1191 142.611 69.6391C141.141 67.8791 140.221 65.6591 139.011 63.5591ZM172.532 36.2891C172.472 35.7391 172.451 34.6591 172.231 33.6191C171.671 31.0591 169.731 29.0091 166.351 29.7091C163.741 30.2391 162.051 31.9491 160.511 33.8591C158.151 36.7791 156.511 40.1191 155.131 43.5991C153.421 47.9391 152.021 52.3491 152.351 57.0991C152.501 59.2391 153.311 61.1091 155.321 62.0991C157.221 63.0391 159.211 62.8791 160.881 61.5491C162.221 60.4891 163.472 59.2691 164.562 57.9591C166.982 55.0691 168.511 51.6391 169.951 48.1991C171.471 44.5691 172.472 40.7891 172.532 36.2891Z" fill="#F5EA33"/>
<path d="M220.302 18.269C222.542 18.269 224.742 18.149 226.912 18.309C228.522 18.429 230.152 18.749 231.682 19.259C233.352 19.829 234.132 21.189 234.152 22.999C234.172 24.509 234.102 25.949 233.182 27.259C232.122 28.769 230.602 29.629 228.892 29.719C224.562 29.939 220.222 29.959 215.882 29.979C215.002 29.979 214.612 30.239 214.242 31.039C212.572 34.709 210.772 38.309 209.082 41.969C206.732 47.059 204.412 52.169 202.152 57.299C201.742 58.229 201.602 59.329 201.532 60.359C201.452 61.559 202.032 62.019 203.212 62.119C205.062 62.279 206.702 61.599 208.212 60.749C212.672 58.249 217.042 55.589 221.492 53.059C223.292 52.039 225.162 51.079 227.092 50.349C229.212 49.539 231.082 50.469 232.462 52.009C233.962 53.679 234.352 55.719 233.372 57.859C232.102 60.639 229.772 62.429 227.292 63.919C222.942 66.539 218.532 69.079 214.012 71.379C210.542 73.149 206.862 74.589 202.982 75.209C198.902 75.869 194.862 75.769 191.212 73.359C188.292 71.439 187.012 68.669 186.872 65.289C186.692 60.929 188.142 56.919 189.862 53.049C192.612 46.859 195.572 40.759 198.432 34.619C199.132 33.119 199.812 31.599 200.422 30.279C198.232 29.939 196.072 29.679 193.932 29.269C192.062 28.909 190.322 26.539 190.922 23.859C191.762 20.129 193.212 18.789 196.922 18.509C199.612 18.309 202.322 18.289 205.022 18.269C205.812 18.269 206.222 18.029 206.542 17.319C208.272 13.559 209.982 9.77904 211.832 6.07904C212.772 4.18904 213.632 2.13904 215.572 0.979041C218.742 -0.900959 223.762 0.0690432 224.862 4.12904C225.312 5.77904 225.012 7.45904 224.302 9.04904C222.972 12.109 221.662 15.159 220.302 18.269Z" fill="#DF2728"/>
</g>
<defs>
<clipPath id="clip0_671_4752">
<rect width="384" height="76" fill="white"/>
</clipPath>
</defs>
</svg>
